<svg xmlns="http://www.w3.org/2000/svg" xmlns:xlink="http://www.w3.org/1999/xlink" width="1058" zoomAndPan="magnify" viewBox="0 0 793.5 737.249977" height="983" preserveAspectRatio="xMidYMid meet" version="1.2"><defs><clipPath id="662b974606"><path d="M 0.152344 0 L 792.847656 0 L 792.847656 736.5 L 0.152344 736.5 Z M 0.152344 0 "/></clipPath><clipPath id="3cd68d6f8f"><path d="M 0.152344 0 L 792.644531 0 L 792.644531 736.3125 L 0.152344 736.3125 Z M 0.152344 0 "/></clipPath><clipPath id="957042a417"><path d="M 578.253906 226.574219 L 599.976562 226.574219 L 599.976562 248.296875 L 578.253906 248.296875 Z M 578.253906 226.574219 "/></clipPath></defs><g id="f686f75a8a"><g clip-rule="nonzero" clip-path="url(#662b974606)"><path style=" stroke:none;fill-rule:nonzero;fill:#ffffff;fill-opacity:1;" d="M 0.152344 0 L 792.847656 0 L 792.847656 736.5 L 0.152344 736.5 Z M 0.152344 0 "/></g><g clip-rule="nonzero" clip-path="url(#3cd68d6f8f)"><path style=" stroke:none;fill-rule:nonzero;fill:#ffffff;fill-opacity:1;" d="M 0.152344 0 L 792.644531 0 L 792.644531 736.3125 L 0.152344 736.3125 Z M 0.152344 0 "/></g><g style="fill:#f2133c;fill-opacity:1;"><g transform="translate(179.064681, 349.015092)"><path style="stroke:none" d="M 31.1875 1.46875 C 27.082031 1.46875 23.21875 0.847656 19.59375 -0.390625 C 15.976562 -1.628906 12.769531 -3.289062 9.96875 -5.375 C 7.164062 -7.457031 4.96875 -9.851562 3.375 -12.5625 C 1.78125 -15.269531 0.984375 -18.085938 0.984375 -21.015625 C 0.984375 -22.191406 1.617188 -23.476562 2.890625 -24.875 C 4.160156 -26.28125 5.804688 -27.664062 7.828125 -29.03125 C 9.847656 -30.40625 11.945312 -31.644531 14.125 -32.75 C 16.3125 -33.851562 18.347656 -34.75 20.234375 -35.4375 C 22.128906 -36.125 23.597656 -36.4375 24.640625 -36.375 C 26.140625 -36.300781 27.410156 -35.789062 28.453125 -34.84375 C 29.492188 -33.90625 29.882812 -32.488281 29.625 -30.59375 C 29.300781 -28.050781 29.039062 -25.363281 28.84375 -22.53125 C 28.644531 -19.695312 28.835938 -17.039062 29.421875 -14.5625 C 30.015625 -12.09375 31.269531 -10.070312 33.1875 -8.5 C 35.113281 -6.9375 37.96875 -6.15625 41.75 -6.15625 C 44.289062 -6.15625 46.632812 -6.722656 48.78125 -7.859375 C 50.9375 -9.003906 52.679688 -10.585938 54.015625 -12.609375 C 55.347656 -14.628906 56.015625 -16.878906 56.015625 -19.359375 C 56.015625 -22.679688 55.148438 -25.46875 53.421875 -27.71875 C 51.703125 -29.96875 49.457031 -31.84375 46.6875 -33.34375 C 43.914062 -34.84375 40.898438 -36.078125 37.640625 -37.046875 C 32.816406 -38.546875 28.238281 -40.125 23.90625 -41.78125 C 19.570312 -43.445312 15.742188 -45.453125 12.421875 -47.796875 C 9.097656 -50.148438 6.472656 -53.066406 4.546875 -56.546875 C 2.617188 -60.035156 1.65625 -64.359375 1.65625 -69.515625 C 1.65625 -73.617188 2.453125 -77.460938 4.046875 -81.046875 C 5.648438 -84.628906 7.835938 -87.789062 10.609375 -90.53125 C 13.378906 -93.269531 16.585938 -95.40625 20.234375 -96.9375 C 23.890625 -98.46875 27.769531 -99.234375 31.875 -99.234375 C 34.414062 -99.234375 36.84375 -98.90625 39.15625 -98.25 C 41.46875 -97.601562 43.828125 -96.953125 46.234375 -96.296875 C 48.648438 -95.648438 51.359375 -95.328125 54.359375 -95.328125 C 56.640625 -95.328125 58.445312 -95.648438 59.78125 -96.296875 C 61.113281 -96.953125 62.253906 -97.601562 63.203125 -98.25 C 64.148438 -98.90625 65.113281 -99.234375 66.09375 -99.234375 C 67.257812 -99.234375 67.988281 -98.582031 68.28125 -97.28125 C 68.582031 -95.976562 68.535156 -94.296875 68.140625 -92.234375 C 67.753906 -90.179688 67.085938 -88 66.140625 -85.6875 C 65.191406 -83.375 64 -81.191406 62.5625 -79.140625 C 61.132812 -77.085938 59.539062 -75.410156 57.78125 -74.109375 C 56.019531 -72.804688 54.128906 -72.15625 52.109375 -72.15625 C 48.523438 -72.15625 45.21875 -72.738281 42.1875 -73.90625 C 39.15625 -75.082031 36.238281 -76.453125 33.4375 -78.015625 C 30.632812 -79.578125 27.78125 -80.945312 24.875 -82.125 C 21.976562 -83.300781 18.898438 -83.890625 15.640625 -83.890625 C 13.816406 -83.890625 12.269531 -83.21875 11 -81.875 C 9.726562 -80.539062 9.09375 -78.929688 9.09375 -77.046875 C 9.09375 -74.429688 10.117188 -72.289062 12.171875 -70.625 C 14.222656 -68.96875 16.894531 -67.648438 20.1875 -66.671875 C 23.476562 -65.691406 27.0625 -64.941406 30.9375 -64.421875 C 34.820312 -63.898438 38.617188 -63.476562 42.328125 -63.15625 C 47.804688 -62.632812 52.613281 -61.148438 56.75 -58.703125 C 60.894531 -56.265625 64.125 -53.070312 66.4375 -49.125 C 68.75 -45.1875 69.90625 -40.707031 69.90625 -35.6875 C 69.90625 -31.320312 69.15625 -26.953125 67.65625 -22.578125 C 66.15625 -18.210938 63.859375 -14.222656 60.765625 -10.609375 C 57.671875 -6.992188 53.675781 -4.078125 48.78125 -1.859375 C 43.894531 0.359375 38.03125 1.46875 31.1875 1.46875 Z M 31.1875 1.46875 "/></g></g><g style="fill:#f2133c;fill-opacity:1;"><g transform="translate(249.457708, 349.015092)"><path style="stroke:none" d="M 0.984375 0 C 2.285156 -1.300781 3.179688 -2.847656 3.671875 -4.640625 C 4.160156 -6.429688 4.40625 -8.726562 4.40625 -11.53125 L 4.40625 -86.234375 C 4.40625 -89.035156 4.160156 -91.332031 3.671875 -93.125 C 3.179688 -94.914062 2.285156 -96.460938 0.984375 -97.765625 L 33.734375 -97.765625 C 32.429688 -96.460938 31.535156 -94.914062 31.046875 -93.125 C 30.554688 -91.332031 30.3125 -89.035156 30.3125 -86.234375 L 30.3125 -11.53125 C 30.3125 -8.726562 30.554688 -6.429688 31.046875 -4.640625 C 31.535156 -2.847656 32.429688 -1.300781 33.734375 0 Z M 0.984375 0 "/></g></g><g style="fill:#f2133c;fill-opacity:1;"><g transform="translate(282.209933, 349.015092)"><path style="stroke:none" d="M 4.40625 -86.234375 C 4.40625 -89.035156 4.160156 -91.332031 3.671875 -93.125 C 3.179688 -94.914062 2.285156 -96.460938 0.984375 -97.765625 L 32.0625 -97.765625 C 34.414062 -97.765625 36.289062 -97.03125 37.6875 -95.5625 C 39.09375 -94.09375 40.347656 -91.796875 41.453125 -88.671875 C 42.554688 -85.546875 43.804688 -81.472656 45.203125 -76.453125 C 46.609375 -71.429688 48.488281 -65.398438 50.84375 -58.359375 C 53.1875 -65.398438 55.054688 -71.429688 56.453125 -76.453125 C 57.859375 -81.472656 59.113281 -85.546875 60.21875 -88.671875 C 61.332031 -91.796875 62.585938 -94.09375 63.984375 -95.5625 C 65.390625 -97.03125 67.265625 -97.765625 69.609375 -97.765625 L 100.5 -97.765625 C 99.195312 -96.460938 98.300781 -94.914062 97.8125 -93.125 C 97.320312 -91.332031 97.078125 -89.035156 97.078125 -86.234375 L 97.078125 -11.53125 C 97.078125 -8.726562 97.320312 -6.429688 97.8125 -4.640625 C 98.300781 -2.847656 99.195312 -1.300781 100.5 0 L 67.75 0 C 69.050781 -1.300781 69.945312 -2.847656 70.4375 -4.640625 C 70.925781 -6.429688 71.171875 -8.726562 71.171875 -11.53125 L 71.171875 -68.4375 C 71.171875 -69.9375 71.085938 -71.515625 70.921875 -73.171875 C 70.765625 -74.835938 70.441406 -76.238281 69.953125 -77.375 C 69.460938 -78.519531 68.664062 -79.09375 67.5625 -79.09375 C 66.644531 -79.09375 65.628906 -78.015625 64.515625 -75.859375 C 63.410156 -73.710938 62.253906 -70.847656 61.046875 -67.265625 C 59.847656 -63.679688 58.644531 -59.6875 57.4375 -55.28125 C 56.226562 -50.882812 55.070312 -46.4375 53.96875 -41.9375 C 52.988281 -37.832031 52.054688 -33.875 51.171875 -30.0625 C 50.296875 -26.25 49.453125 -22.8125 48.640625 -19.75 C 47.828125 -16.6875 46.992188 -14.273438 46.140625 -12.515625 C 45.296875 -10.753906 44.382812 -9.875 43.40625 -9.875 C 42.5625 -9.875 41.597656 -10.832031 40.515625 -12.75 C 39.441406 -14.675781 38.332031 -17.21875 37.1875 -20.375 C 36.050781 -23.539062 34.863281 -27.03125 33.625 -30.84375 C 32.394531 -34.65625 31.160156 -38.453125 29.921875 -42.234375 C 29.523438 -43.410156 28.96875 -45.101562 28.25 -47.3125 C 27.53125 -49.53125 26.695312 -52.023438 25.75 -54.796875 C 24.8125 -57.566406 23.804688 -60.367188 22.734375 -63.203125 C 21.660156 -66.035156 20.582031 -68.65625 19.5 -71.0625 C 18.425781 -73.476562 17.382812 -75.421875 16.375 -76.890625 C 15.363281 -78.359375 14.46875 -79.09375 13.6875 -79.09375 C 12.644531 -79.09375 11.863281 -78.519531 11.34375 -77.375 C 10.820312 -76.238281 10.476562 -74.835938 10.3125 -73.171875 C 10.144531 -71.515625 10.0625 -69.9375 10.0625 -68.4375 C 10.0625 -62.175781 10.8125 -56.535156 12.3125 -51.515625 C 13.8125 -46.503906 15.671875 -41.960938 17.890625 -37.890625 C 20.109375 -33.816406 22.304688 -30.097656 24.484375 -26.734375 C 26.671875 -23.378906 28.515625 -20.21875 30.015625 -17.25 C 31.515625 -14.289062 32.265625 -11.410156 32.265625 -8.609375 C 32.265625 -5.609375 31.171875 -3.421875 28.984375 -2.046875 C 26.804688 -0.679688 24.28125 0 21.40625 0 L 0.984375 0 C 2.285156 -1.300781 3.179688 -2.847656 3.671875 -4.640625 C 4.160156 -6.429688 4.40625 -8.726562 4.40625 -11.53125 Z M 4.40625 -86.234375 "/></g></g><g style="fill:#f2133c;fill-opacity:1;"><g transform="translate(381.737925, 349.015092)"><path style="stroke:none" d="M 0.984375 -97.765625 L 40.375 -97.765625 C 48.320312 -97.765625 54.691406 -96.507812 59.484375 -94 C 64.273438 -91.488281 67.757812 -88.097656 69.9375 -83.828125 C 72.125 -79.566406 73.21875 -74.796875 73.21875 -69.515625 C 73.21875 -65.734375 72.628906 -61.953125 71.453125 -58.171875 C 70.285156 -54.390625 68.460938 -50.953125 65.984375 -47.859375 C 63.515625 -44.765625 60.289062 -42.269531 56.3125 -40.375 C 52.332031 -38.488281 47.507812 -37.546875 41.84375 -37.546875 C 37.539062 -37.546875 33.742188 -38.113281 30.453125 -39.25 C 27.160156 -40.394531 24.320312 -41.71875 21.9375 -43.21875 C 19.5625 -44.71875 17.554688 -46.035156 15.921875 -47.171875 C 14.296875 -48.316406 13 -48.890625 12.03125 -48.890625 C 10.53125 -48.890625 9.78125 -48.070312 9.78125 -46.4375 C 9.78125 -44.351562 10.394531 -42.429688 11.625 -40.671875 C 12.863281 -38.910156 14.476562 -37.210938 16.46875 -35.578125 C 18.457031 -33.953125 20.5625 -32.273438 22.78125 -30.546875 C 25 -28.828125 27.097656 -26.972656 29.078125 -24.984375 C 31.066406 -22.992188 32.679688 -20.757812 33.921875 -18.28125 C 35.160156 -15.800781 35.78125 -13 35.78125 -9.875 C 35.78125 -8.570312 35.535156 -7.15625 35.046875 -5.625 C 34.554688 -4.09375 33.804688 -2.769531 32.796875 -1.65625 C 31.785156 -0.550781 30.46875 0 28.84375 0 L 0.984375 0 C 2.285156 -1.300781 3.179688 -2.847656 3.671875 -4.640625 C 4.160156 -6.429688 4.40625 -8.726562 4.40625 -11.53125 L 4.40625 -86.234375 C 4.40625 -89.035156 4.160156 -91.332031 3.671875 -93.125 C 3.179688 -94.914062 2.285156 -96.460938 0.984375 -97.765625 Z M 34.703125 -77.328125 C 32.222656 -77.328125 29.515625 -77.226562 26.578125 -77.03125 C 23.648438 -76.84375 20.882812 -76.4375 18.28125 -75.8125 C 15.675781 -75.195312 13.539062 -74.238281 11.875 -72.9375 C 10.21875 -71.632812 9.390625 -69.875 9.390625 -67.65625 C 9.390625 -65.4375 10.269531 -63.691406 12.03125 -62.421875 C 13.789062 -61.148438 16.117188 -60.1875 19.015625 -59.53125 C 21.910156 -58.882812 25.066406 -58.460938 28.484375 -58.265625 C 31.910156 -58.066406 35.320312 -57.96875 38.71875 -57.96875 C 42.101562 -57.96875 45.519531 -58.066406 48.96875 -58.265625 C 52.425781 -58.460938 55.601562 -58.882812 58.5 -59.53125 C 61.40625 -60.1875 63.738281 -61.148438 65.5 -62.421875 C 67.257812 -63.691406 68.140625 -65.4375 68.140625 -67.65625 C 68.140625 -69.414062 67.421875 -70.878906 65.984375 -72.046875 C 64.554688 -73.222656 62.648438 -74.171875 60.265625 -74.890625 C 57.890625 -75.609375 55.234375 -76.128906 52.296875 -76.453125 C 49.367188 -76.773438 46.375 -77 43.3125 -77.125 C 40.25 -77.257812 37.378906 -77.328125 34.703125 -77.328125 Z M 34.703125 -77.328125 "/></g></g><g style="fill:#f2133c;fill-opacity:1;"><g transform="translate(454.966224, 349.015092)"><path style="stroke:none" d="M 53.09375 0 L 0.984375 0 C 2.285156 -1.300781 3.179688 -2.847656 3.671875 -4.640625 C 4.160156 -6.429688 4.40625 -8.726562 4.40625 -11.53125 L 4.40625 -86.234375 C 4.40625 -89.035156 4.160156 -91.332031 3.671875 -93.125 C 3.179688 -94.914062 2.285156 -96.460938 0.984375 -97.765625 L 30.984375 -97.765625 C 33.660156 -97.765625 35.734375 -97.304688 37.203125 -96.390625 C 38.671875 -95.484375 39.695312 -94.359375 40.28125 -93.015625 C 40.863281 -91.679688 41.15625 -90.363281 41.15625 -89.0625 C 41.15625 -86.65625 40.46875 -84.195312 39.09375 -81.6875 C 37.726562 -79.175781 35.96875 -76.597656 33.8125 -73.953125 C 31.664062 -71.316406 29.382812 -68.5625 26.96875 -65.6875 C 24.5625 -62.820312 22.28125 -59.828125 20.125 -56.703125 C 17.976562 -53.578125 16.222656 -50.300781 14.859375 -46.875 C 13.492188 -43.457031 12.8125 -39.859375 12.8125 -36.078125 C 12.8125 -33.921875 13.148438 -31.488281 13.828125 -28.78125 C 14.515625 -26.082031 15.523438 -23.332031 16.859375 -20.53125 C 18.203125 -17.726562 19.882812 -15.132812 21.90625 -12.75 C 23.925781 -10.375 26.285156 -8.46875 28.984375 -7.03125 C 31.691406 -5.601562 34.707031 -4.890625 38.03125 -4.890625 C 40.113281 -4.890625 42.132812 -5.226562 44.09375 -5.90625 C 46.050781 -6.59375 47.664062 -7.617188 48.9375 -8.984375 C 50.207031 -10.359375 50.84375 -12.054688 50.84375 -14.078125 C 50.84375 -16.679688 50.285156 -18.910156 49.171875 -20.765625 C 48.066406 -22.628906 46.695312 -24.34375 45.0625 -25.90625 C 43.4375 -27.46875 41.789062 -29.113281 40.125 -30.84375 C 38.46875 -32.570312 37.082031 -34.59375 35.96875 -36.90625 C 34.863281 -39.21875 34.3125 -42.070312 34.3125 -45.46875 C 34.3125 -47.9375 34.914062 -50.242188 36.125 -52.390625 C 37.332031 -54.546875 38.945312 -56.289062 40.96875 -57.625 C 42.988281 -58.96875 45.234375 -59.640625 47.703125 -59.640625 C 49.273438 -59.640625 51.296875 -59.34375 53.765625 -58.75 C 56.242188 -58.164062 58.722656 -57.382812 61.203125 -56.40625 C 63.679688 -55.425781 65.765625 -54.285156 67.453125 -52.984375 C 69.148438 -51.679688 70 -50.316406 70 -48.890625 C 70 -46.992188 69.476562 -45.488281 68.4375 -44.375 C 67.394531 -43.269531 66.054688 -42.375 64.421875 -41.6875 C 62.796875 -41.007812 61.085938 -40.394531 59.296875 -39.84375 C 57.503906 -39.289062 55.789062 -38.703125 54.15625 -38.078125 C 52.53125 -37.460938 51.195312 -36.628906 50.15625 -35.578125 C 49.113281 -34.535156 48.59375 -33.132812 48.59375 -31.375 C 48.59375 -29.945312 49.128906 -28.710938 50.203125 -27.671875 C 51.273438 -26.628906 52.640625 -25.664062 54.296875 -24.78125 C 55.960938 -23.90625 57.738281 -22.992188 59.625 -22.046875 C 61.519531 -21.097656 63.296875 -20.003906 64.953125 -18.765625 C 66.617188 -17.523438 67.988281 -16.039062 69.0625 -14.3125 C 70.144531 -12.59375 70.6875 -10.492188 70.6875 -8.015625 C 70.6875 -5.796875 70.144531 -4.113281 69.0625 -2.96875 C 67.988281 -1.832031 66.570312 -1.066406 64.8125 -0.671875 C 63.050781 -0.285156 61.144531 -0.078125 59.09375 -0.046875 C 57.039062 -0.015625 55.039062 0 53.09375 0 Z M 53.09375 0 "/></g></g><g style="fill:#f2133c;fill-opacity:1;"><g transform="translate(524.674891, 349.015092)"><path style="stroke:none" d="M 0 -97.765625 L 26.296875 -97.765625 C 29.421875 -97.765625 31.910156 -96.898438 33.765625 -95.171875 C 35.628906 -93.441406 36.96875 -91.289062 37.78125 -88.71875 C 38.601562 -86.144531 39.015625 -83.554688 39.015625 -80.953125 C 39.015625 -77.816406 38.554688 -75.023438 37.640625 -72.578125 C 36.722656 -70.140625 35.660156 -67.828125 34.453125 -65.640625 C 33.253906 -63.460938 32.195312 -61.164062 31.28125 -58.75 C 30.375 -56.34375 29.921875 -53.578125 29.921875 -50.453125 C 29.921875 -48.035156 30.894531 -45.785156 32.84375 -43.703125 C 34.800781 -41.617188 37.800781 -40.609375 41.84375 -40.671875 C 45.039062 -40.671875 47.613281 -41.207031 49.5625 -42.28125 C 51.519531 -43.351562 53.019531 -44.703125 54.0625 -46.328125 C 55.101562 -47.960938 55.800781 -49.675781 56.15625 -51.46875 C 56.519531 -53.257812 56.703125 -54.941406 56.703125 -56.515625 C 56.703125 -59.054688 56.210938 -61.613281 55.234375 -64.1875 C 54.253906 -66.757812 53.046875 -69.316406 51.609375 -71.859375 C 50.179688 -74.398438 48.75 -76.875 47.3125 -79.28125 C 45.882812 -81.695312 44.679688 -83.992188 43.703125 -86.171875 C 42.722656 -88.359375 42.234375 -90.363281 42.234375 -92.1875 C 42.234375 -93.6875 42.753906 -94.988281 43.796875 -96.09375 C 44.835938 -97.207031 46.140625 -97.765625 47.703125 -97.765625 L 70.484375 -97.765625 C 72.640625 -97.765625 74.269531 -96.984375 75.375 -95.421875 C 76.488281 -93.859375 77.238281 -91.96875 77.625 -89.75 C 78.019531 -87.53125 78.21875 -85.410156 78.21875 -83.390625 C 78.21875 -78.503906 77.5 -73.972656 76.0625 -69.796875 C 74.625 -65.628906 72.765625 -61.769531 70.484375 -58.21875 C 68.203125 -54.664062 65.789062 -51.359375 63.25 -48.296875 C 60.707031 -45.234375 58.296875 -42.363281 56.015625 -39.6875 C 53.734375 -37.019531 51.875 -34.507812 50.4375 -32.15625 C 49.007812 -29.8125 48.296875 -27.566406 48.296875 -25.421875 C 48.296875 -21.765625 48.785156 -18.75 49.765625 -16.375 C 50.742188 -14 51.847656 -12.007812 53.078125 -10.40625 C 54.316406 -8.8125 55.425781 -7.425781 56.40625 -6.25 C 57.382812 -5.082031 57.875 -3.910156 57.875 -2.734375 C 57.875 -1.953125 57.5 -1.300781 56.75 -0.78125 C 56 -0.257812 54.679688 0 52.796875 0 L 29.03125 0 C 27.664062 0 26.523438 -0.488281 25.609375 -1.46875 C 24.703125 -2.445312 24.035156 -3.664062 23.609375 -5.125 C 23.179688 -6.59375 22.96875 -8.015625 22.96875 -9.390625 C 22.96875 -11.929688 23.71875 -14.226562 25.21875 -16.28125 C 26.71875 -18.332031 28.578125 -20.203125 30.796875 -21.890625 C 33.015625 -23.585938 35.226562 -25.15625 37.4375 -26.59375 C 39.65625 -28.03125 41.515625 -29.363281 43.015625 -30.59375 C 44.515625 -31.832031 45.265625 -33.039062 45.265625 -34.21875 C 45.265625 -35.195312 44.84375 -35.6875 44 -35.6875 C 43.144531 -35.6875 42.328125 -35.488281 41.546875 -35.09375 C 40.765625 -34.707031 39.722656 -34.300781 38.421875 -33.875 C 37.117188 -33.445312 35.296875 -33.234375 32.953125 -33.234375 C 29.234375 -33.234375 26.179688 -33.882812 23.796875 -35.1875 C 21.421875 -36.5 19.53125 -38.242188 18.125 -40.421875 C 16.726562 -42.609375 15.6875 -45.019531 15 -47.65625 C 14.320312 -50.300781 13.851562 -52.925781 13.59375 -55.53125 C 13.257812 -58.789062 12.878906 -62.390625 12.453125 -66.328125 C 12.035156 -70.273438 11.382812 -74.234375 10.5 -78.203125 C 9.625 -82.179688 8.351562 -85.878906 6.6875 -89.296875 C 5.03125 -92.722656 2.800781 -95.546875 0 -97.765625 Z M 0 -97.765625 "/></g></g><g style="fill:#f2133c;fill-opacity:1;"><g transform="translate(179.064681, 461.091245)"><path style="stroke:none" d="M 4.40625 -86.234375 C 4.40625 -89.035156 4.160156 -91.332031 3.671875 -93.125 C 3.179688 -94.914062 2.285156 -96.460938 0.984375 -97.765625 L 43.015625 -97.765625 C 49.335938 -97.765625 54.535156 -96.609375 58.609375 -94.296875 C 62.679688 -91.984375 65.710938 -88.984375 67.703125 -85.296875 C 69.691406 -81.617188 70.6875 -77.691406 70.6875 -73.515625 C 70.6875 -70.773438 70.113281 -67.957031 68.96875 -65.0625 C 67.832031 -62.164062 66.125 -59.492188 63.84375 -57.046875 C 61.5625 -54.597656 58.722656 -52.625 55.328125 -51.125 C 51.941406 -49.632812 48 -48.890625 43.5 -48.890625 C 39.914062 -48.890625 36.410156 -49.242188 32.984375 -49.953125 C 29.566406 -50.671875 26.457031 -51.375 23.65625 -52.0625 C 20.851562 -52.75 18.539062 -53.09375 16.71875 -53.09375 C 16.0625 -53.09375 15.519531 -52.957031 15.09375 -52.6875 C 14.675781 -52.425781 14.46875 -52.035156 14.46875 -51.515625 C 14.46875 -50.546875 15.425781 -49.71875 17.34375 -49.03125 C 19.269531 -48.34375 21.734375 -47.785156 24.734375 -47.359375 C 27.734375 -46.941406 30.84375 -46.585938 34.0625 -46.296875 C 37.289062 -46.003906 40.210938 -45.726562 42.828125 -45.46875 C 52.796875 -44.488281 60.09375 -41.894531 64.71875 -37.6875 C 69.34375 -33.476562 71.65625 -28.019531 71.65625 -21.3125 C 71.65625 -17.46875 70.597656 -13.929688 68.484375 -10.703125 C 66.367188 -7.472656 63.515625 -4.878906 59.921875 -2.921875 C 56.335938 -0.972656 52.300781 0 47.8125 0 L 0.984375 0 C 2.285156 -1.300781 3.179688 -2.847656 3.671875 -4.640625 C 4.160156 -6.429688 4.40625 -8.726562 4.40625 -11.53125 Z M 35.875 -78.21875 C 32.550781 -78.21875 29.304688 -77.875 26.140625 -77.1875 C 22.984375 -76.5 20.164062 -75.519531 17.6875 -74.25 C 15.21875 -72.976562 13.25 -71.507812 11.78125 -69.84375 C 10.3125 -68.1875 9.578125 -66.378906 9.578125 -64.421875 C 9.578125 -62.210938 10.585938 -60.503906 12.609375 -59.296875 C 14.628906 -58.085938 16.976562 -57.484375 19.65625 -57.484375 C 25.257812 -57.484375 30.03125 -58.195312 33.96875 -59.625 C 37.914062 -61.0625 40.929688 -62.820312 43.015625 -64.90625 C 45.097656 -67 46.140625 -69.023438 46.140625 -70.984375 C 46.140625 -72.929688 45.257812 -74.625 43.5 -76.0625 C 41.738281 -77.5 39.195312 -78.21875 35.875 -78.21875 Z M 10.859375 -45.46875 C 10.398438 -45.46875 10.085938 -45.351562 9.921875 -45.125 C 9.753906 -44.894531 9.671875 -44.648438 9.671875 -44.390625 C 9.671875 -43.796875 10.0625 -42.945312 10.84375 -41.84375 C 11.632812 -40.738281 12.582031 -39.566406 13.6875 -38.328125 C 14.789062 -37.085938 15.769531 -35.945312 16.625 -34.90625 C 18.445312 -32.820312 20.484375 -30.554688 22.734375 -28.109375 C 24.984375 -25.660156 27.488281 -23.570312 30.25 -21.84375 C 33.019531 -20.125 35.972656 -19.265625 39.109375 -19.265625 C 41.066406 -19.265625 42.613281 -19.640625 43.75 -20.390625 C 44.894531 -21.140625 45.707031 -22.050781 46.1875 -23.125 C 46.675781 -24.195312 46.921875 -25.222656 46.921875 -26.203125 C 46.921875 -28.609375 45.519531 -31.050781 42.71875 -33.53125 C 39.914062 -36.007812 34.898438 -38.359375 27.671875 -40.578125 C 22.453125 -42.203125 18.648438 -43.421875 16.265625 -44.234375 C 13.890625 -45.054688 12.085938 -45.46875 10.859375 -45.46875 Z M 10.859375 -45.46875 "/></g></g><g style="fill:#f2133c;fill-opacity:1;"><g transform="translate(250.728694, 461.091245)"><path style="stroke:none" d="M 53.09375 0 L 0.984375 0 C 2.285156 -1.300781 3.179688 -2.847656 3.671875 -4.640625 C 4.160156 -6.429688 4.40625 -8.726562 4.40625 -11.53125 L 4.40625 -86.234375 C 4.40625 -89.035156 4.160156 -91.332031 3.671875 -93.125 C 3.179688 -94.914062 2.285156 -96.460938 0.984375 -97.765625 L 30.984375 -97.765625 C 33.660156 -97.765625 35.734375 -97.304688 37.203125 -96.390625 C 38.671875 -95.484375 39.695312 -94.359375 40.28125 -93.015625 C 40.863281 -91.679688 41.15625 -90.363281 41.15625 -89.0625 C 41.15625 -86.65625 40.46875 -84.195312 39.09375 -81.6875 C 37.726562 -79.175781 35.96875 -76.597656 33.8125 -73.953125 C 31.664062 -71.316406 29.382812 -68.5625 26.96875 -65.6875 C 24.5625 -62.820312 22.28125 -59.828125 20.125 -56.703125 C 17.976562 -53.578125 16.222656 -50.300781 14.859375 -46.875 C 13.492188 -43.457031 12.8125 -39.859375 12.8125 -36.078125 C 12.8125 -33.921875 13.148438 -31.488281 13.828125 -28.78125 C 14.515625 -26.082031 15.523438 -23.332031 16.859375 -20.53125 C 18.203125 -17.726562 19.882812 -15.132812 21.90625 -12.75 C 23.925781 -10.375 26.285156 -8.46875 28.984375 -7.03125 C 31.691406 -5.601562 34.707031 -4.890625 38.03125 -4.890625 C 40.113281 -4.890625 42.132812 -5.226562 44.09375 -5.90625 C 46.050781 -6.59375 47.664062 -7.617188 48.9375 -8.984375 C 50.207031 -10.359375 50.84375 -12.054688 50.84375 -14.078125 C 50.84375 -16.679688 50.285156 -18.910156 49.171875 -20.765625 C 48.066406 -22.628906 46.695312 -24.34375 45.0625 -25.90625 C 43.4375 -27.46875 41.789062 -29.113281 40.125 -30.84375 C 38.46875 -32.570312 37.082031 -34.59375 35.96875 -36.90625 C 34.863281 -39.21875 34.3125 -42.070312 34.3125 -45.46875 C 34.3125 -47.9375 34.914062 -50.242188 36.125 -52.390625 C 37.332031 -54.546875 38.945312 -56.289062 40.96875 -57.625 C 42.988281 -58.96875 45.234375 -59.640625 47.703125 -59.640625 C 49.273438 -59.640625 51.296875 -59.34375 53.765625 -58.75 C 56.242188 -58.164062 58.722656 -57.382812 61.203125 -56.40625 C 63.679688 -55.425781 65.765625 -54.285156 67.453125 -52.984375 C 69.148438 -51.679688 70 -50.316406 70 -48.890625 C 70 -46.992188 69.476562 -45.488281 68.4375 -44.375 C 67.394531 -43.269531 66.054688 -42.375 64.421875 -41.6875 C 62.796875 -41.007812 61.085938 -40.394531 59.296875 -39.84375 C 57.503906 -39.289062 55.789062 -38.703125 54.15625 -38.078125 C 52.53125 -37.460938 51.195312 -36.628906 50.15625 -35.578125 C 49.113281 -34.535156 48.59375 -33.132812 48.59375 -31.375 C 48.59375 -29.945312 49.128906 -28.710938 50.203125 -27.671875 C 51.273438 -26.628906 52.640625 -25.664062 54.296875 -24.78125 C 55.960938 -23.90625 57.738281 -22.992188 59.625 -22.046875 C 61.519531 -21.097656 63.296875 -20.003906 64.953125 -18.765625 C 66.617188 -17.523438 67.988281 -16.039062 69.0625 -14.3125 C 70.144531 -12.59375 70.6875 -10.492188 70.6875 -8.015625 C 70.6875 -5.796875 70.144531 -4.113281 69.0625 -2.96875 C 67.988281 -1.832031 66.570312 -1.066406 64.8125 -0.671875 C 63.050781 -0.285156 61.144531 -0.078125 59.09375 -0.046875 C 57.039062 -0.015625 55.039062 0 53.09375 0 Z M 53.09375 0 "/></g></g><g style="fill:#f2133c;fill-opacity:1;"><g transform="translate(320.437342, 461.091245)"><path style="stroke:none" d="M 2.4375 -48.890625 C 2.4375 -56.441406 3.347656 -63.296875 5.171875 -69.453125 C 7.003906 -75.617188 9.613281 -80.929688 13 -85.390625 C 16.394531 -89.859375 20.453125 -93.28125 25.171875 -95.65625 C 29.898438 -98.039062 35.164062 -99.234375 40.96875 -99.234375 C 46.695312 -99.234375 51.925781 -98.039062 56.65625 -95.65625 C 61.382812 -93.28125 65.441406 -89.859375 68.828125 -85.390625 C 72.210938 -80.929688 74.816406 -75.617188 76.640625 -69.453125 C 78.472656 -63.296875 79.390625 -56.441406 79.390625 -48.890625 C 79.390625 -41.328125 78.472656 -34.460938 76.640625 -28.296875 C 74.816406 -22.140625 72.210938 -16.828125 68.828125 -12.359375 C 65.441406 -7.898438 61.382812 -4.476562 56.65625 -2.09375 C 51.925781 0.28125 46.695312 1.46875 40.96875 1.46875 C 35.164062 1.46875 29.898438 0.28125 25.171875 -2.09375 C 20.453125 -4.476562 16.394531 -7.898438 13 -12.359375 C 9.613281 -16.828125 7.003906 -22.140625 5.171875 -28.296875 C 3.347656 -34.460938 2.4375 -41.328125 2.4375 -48.890625 Z M 33.046875 -92.578125 C 30.765625 -92.578125 28.972656 -91.351562 27.671875 -88.90625 C 26.367188 -86.46875 25.488281 -83.160156 25.03125 -78.984375 C 24.570312 -74.816406 24.488281 -70.140625 24.78125 -64.953125 C 25.070312 -59.773438 25.675781 -54.414062 26.59375 -48.875 C 27.507812 -43.34375 28.664062 -37.984375 30.0625 -32.796875 C 31.46875 -27.617188 33.066406 -22.941406 34.859375 -18.765625 C 36.648438 -14.597656 38.570312 -11.289062 40.625 -8.84375 C 42.675781 -6.40625 44.773438 -5.1875 46.921875 -5.1875 C 49.660156 -5.1875 51.84375 -6.40625 53.46875 -8.84375 C 55.101562 -11.289062 56.242188 -14.597656 56.890625 -18.765625 C 57.546875 -22.941406 57.773438 -27.617188 57.578125 -32.796875 C 57.390625 -37.984375 56.835938 -43.34375 55.921875 -48.875 C 55.003906 -54.414062 53.78125 -59.773438 52.25 -64.953125 C 50.71875 -70.140625 48.957031 -74.816406 46.96875 -78.984375 C 44.988281 -83.160156 42.820312 -86.46875 40.46875 -88.90625 C 38.125 -91.351562 35.648438 -92.578125 33.046875 -92.578125 Z M 33.046875 -92.578125 "/></g></g><g style="fill:#f2133c;fill-opacity:1;"><g transform="translate(400.313892, 461.091245)"><path style="stroke:none" d="M 2.4375 -48.890625 C 2.4375 -56.441406 3.347656 -63.296875 5.171875 -69.453125 C 7.003906 -75.617188 9.613281 -80.929688 13 -85.390625 C 16.394531 -89.859375 20.453125 -93.28125 25.171875 -95.65625 C 29.898438 -98.039062 35.164062 -99.234375 40.96875 -99.234375 C 46.695312 -99.234375 51.925781 -98.039062 56.65625 -95.65625 C 61.382812 -93.28125 65.441406 -89.859375 68.828125 -85.390625 C 72.210938 -80.929688 74.816406 -75.617188 76.640625 -69.453125 C 78.472656 -63.296875 79.390625 -56.441406 79.390625 -48.890625 C 79.390625 -41.328125 78.472656 -34.460938 76.640625 -28.296875 C 74.816406 -22.140625 72.210938 -16.828125 68.828125 -12.359375 C 65.441406 -7.898438 61.382812 -4.476562 56.65625 -2.09375 C 51.925781 0.28125 46.695312 1.46875 40.96875 1.46875 C 35.164062 1.46875 29.898438 0.28125 25.171875 -2.09375 C 20.453125 -4.476562 16.394531 -7.898438 13 -12.359375 C 9.613281 -16.828125 7.003906 -22.140625 5.171875 -28.296875 C 3.347656 -34.460938 2.4375 -41.328125 2.4375 -48.890625 Z M 33.046875 -92.578125 C 30.765625 -92.578125 28.972656 -91.351562 27.671875 -88.90625 C 26.367188 -86.46875 25.488281 -83.160156 25.03125 -78.984375 C 24.570312 -74.816406 24.488281 -70.140625 24.78125 -64.953125 C 25.070312 -59.773438 25.675781 -54.414062 26.59375 -48.875 C 27.507812 -43.34375 28.664062 -37.984375 30.0625 -32.796875 C 31.46875 -27.617188 33.066406 -22.941406 34.859375 -18.765625 C 36.648438 -14.597656 38.570312 -11.289062 40.625 -8.84375 C 42.675781 -6.40625 44.773438 -5.1875 46.921875 -5.1875 C 49.660156 -5.1875 51.84375 -6.40625 53.46875 -8.84375 C 55.101562 -11.289062 56.242188 -14.597656 56.890625 -18.765625 C 57.546875 -22.941406 57.773438 -27.617188 57.578125 -32.796875 C 57.390625 -37.984375 56.835938 -43.34375 55.921875 -48.875 C 55.003906 -54.414062 53.78125 -59.773438 52.25 -64.953125 C 50.71875 -70.140625 48.957031 -74.816406 46.96875 -78.984375 C 44.988281 -83.160156 42.820312 -86.46875 40.46875 -88.90625 C 38.125 -91.351562 35.648438 -92.578125 33.046875 -92.578125 Z M 33.046875 -92.578125 "/></g></g><g style="fill:#f2133c;fill-opacity:1;"><g transform="translate(480.19045, 461.091245)"><path style="stroke:none" d="M 4.40625 -86.234375 C 4.40625 -89.035156 4.160156 -91.332031 3.671875 -93.125 C 3.179688 -94.914062 2.285156 -96.460938 0.984375 -97.765625 L 32.0625 -97.765625 C 34.414062 -97.765625 36.289062 -97.03125 37.6875 -95.5625 C 39.09375 -94.09375 40.347656 -91.796875 41.453125 -88.671875 C 42.554688 -85.546875 43.804688 -81.472656 45.203125 -76.453125 C 46.609375 -71.429688 48.488281 -65.398438 50.84375 -58.359375 C 53.1875 -65.398438 55.054688 -71.429688 56.453125 -76.453125 C 57.859375 -81.472656 59.113281 -85.546875 60.21875 -88.671875 C 61.332031 -91.796875 62.585938 -94.09375 63.984375 -95.5625 C 65.390625 -97.03125 67.265625 -97.765625 69.609375 -97.765625 L 100.5 -97.765625 C 99.195312 -96.460938 98.300781 -94.914062 97.8125 -93.125 C 97.320312 -91.332031 97.078125 -89.035156 97.078125 -86.234375 L 97.078125 -11.53125 C 97.078125 -8.726562 97.320312 -6.429688 97.8125 -4.640625 C 98.300781 -2.847656 99.195312 -1.300781 100.5 0 L 67.75 0 C 69.050781 -1.300781 69.945312 -2.847656 70.4375 -4.640625 C 70.925781 -6.429688 71.171875 -8.726562 71.171875 -11.53125 L 71.171875 -68.4375 C 71.171875 -69.9375 71.085938 -71.515625 70.921875 -73.171875 C 70.765625 -74.835938 70.441406 -76.238281 69.953125 -77.375 C 69.460938 -78.519531 68.664062 -79.09375 67.5625 -79.09375 C 66.644531 -79.09375 65.628906 -78.015625 64.515625 -75.859375 C 63.410156 -73.710938 62.253906 -70.847656 61.046875 -67.265625 C 59.847656 -63.679688 58.644531 -59.6875 57.4375 -55.28125 C 56.226562 -50.882812 55.070312 -46.4375 53.96875 -41.9375 C 52.988281 -37.832031 52.054688 -33.875 51.171875 -30.0625 C 50.296875 -26.25 49.453125 -22.8125 48.640625 -19.75 C 47.828125 -16.6875 46.992188 -14.273438 46.140625 -12.515625 C 45.296875 -10.753906 44.382812 -9.875 43.40625 -9.875 C 42.5625 -9.875 41.597656 -10.832031 40.515625 -12.75 C 39.441406 -14.675781 38.332031 -17.21875 37.1875 -20.375 C 36.050781 -23.539062 34.863281 -27.03125 33.625 -30.84375 C 32.394531 -34.65625 31.160156 -38.453125 29.921875 -42.234375 C 29.523438 -43.410156 28.96875 -45.101562 28.25 -47.3125 C 27.53125 -49.53125 26.695312 -52.023438 25.75 -54.796875 C 24.8125 -57.566406 23.804688 -60.367188 22.734375 -63.203125 C 21.660156 -66.035156 20.582031 -68.65625 19.5 -71.0625 C 18.425781 -73.476562 17.382812 -75.421875 16.375 -76.890625 C 15.363281 -78.359375 14.46875 -79.09375 13.6875 -79.09375 C 12.644531 -79.09375 11.863281 -78.519531 11.34375 -77.375 C 10.820312 -76.238281 10.476562 -74.835938 10.3125 -73.171875 C 10.144531 -71.515625 10.0625 -69.9375 10.0625 -68.4375 C 10.0625 -62.175781 10.8125 -56.535156 12.3125 -51.515625 C 13.8125 -46.503906 15.671875 -41.960938 17.890625 -37.890625 C 20.109375 -33.816406 22.304688 -30.097656 24.484375 -26.734375 C 26.671875 -23.378906 28.515625 -20.21875 30.015625 -17.25 C 31.515625 -14.289062 32.265625 -11.410156 32.265625 -8.609375 C 32.265625 -5.609375 31.171875 -3.421875 28.984375 -2.046875 C 26.804688 -0.679688 24.28125 0 21.40625 0 L 0.984375 0 C 2.285156 -1.300781 3.179688 -2.847656 3.671875 -4.640625 C 4.160156 -6.429688 4.40625 -8.726562 4.40625 -11.53125 Z M 4.40625 -86.234375 "/></g></g><path style=" stroke:none;fill-rule:nonzero;fill:#212121;fill-opacity:1;" d="M 586.851562 241.671875 L 586.851562 237.773438 L 588.203125 237.773438 C 588.5 237.773438 588.714844 237.785156 588.847656 237.8125 C 589.027344 237.859375 589.195312 237.941406 589.375 238.050781 C 589.542969 238.15625 589.746094 238.359375 589.960938 238.636719 C 590.175781 238.910156 590.460938 239.316406 590.796875 239.84375 L 591.957031 241.671875 L 593.402344 241.671875 L 591.882812 239.28125 C 591.585938 238.816406 591.261719 238.433594 590.925781 238.121094 C 590.773438 237.976562 590.535156 237.824219 590.234375 237.679688 C 591.070312 237.558594 591.691406 237.296875 592.097656 236.867188 C 592.492188 236.4375 592.695312 235.921875 592.695312 235.300781 C 592.695312 234.8125 592.578125 234.378906 592.335938 233.972656 C 592.085938 233.578125 591.765625 233.304688 591.359375 233.148438 C 590.953125 232.996094 590.355469 232.910156 589.578125 232.910156 L 585.691406 232.910156 L 585.691406 241.671875 Z M 586.851562 233.878906 L 589.625 233.878906 C 590.269531 233.878906 590.75 234.011719 591.046875 234.273438 C 591.347656 234.546875 591.5 234.882812 591.5 235.300781 C 591.5 235.574219 591.429688 235.839844 591.273438 236.078125 C 591.117188 236.316406 590.890625 236.496094 590.59375 236.605469 C 590.292969 236.710938 589.875 236.769531 589.351562 236.769531 L 586.851562 236.769531 L 586.851562 233.878906 "/><g clip-rule="nonzero" clip-path="url(#957042a417)"><path style=" stroke:none;fill-rule:nonzero;fill:#212121;fill-opacity:1;" d="M 599.320312 237.4375 C 599.320312 234.617188 598.179688 232.066406 596.332031 230.222656 C 594.484375 228.375 591.933594 227.230469 589.117188 227.230469 C 586.296875 227.230469 583.746094 228.375 581.902344 230.222656 C 580.054688 232.066406 578.910156 234.617188 578.910156 237.4375 C 578.910156 240.253906 580.054688 242.804688 581.902344 244.652344 C 583.746094 246.5 586.296875 247.640625 589.117188 247.640625 C 591.933594 247.640625 594.484375 246.5 596.332031 244.652344 C 598.179688 242.804688 599.320312 240.253906 599.320312 237.4375 Z M 596.796875 229.753906 C 598.761719 231.722656 599.976562 234.4375 599.976562 237.4375 C 599.976562 240.4375 598.761719 243.152344 596.796875 245.117188 C 594.832031 247.082031 592.117188 248.296875 589.117188 248.296875 C 586.117188 248.296875 583.402344 247.082031 581.433594 245.117188 C 579.46875 243.152344 578.253906 240.4375 578.253906 237.4375 C 578.253906 234.4375 579.46875 231.722656 581.433594 229.753906 C 583.402344 227.789062 586.117188 226.574219 589.117188 226.574219 C 592.117188 226.574219 594.832031 227.789062 596.796875 229.753906 "/></g></g></svg>