<svg xmlns="http://www.w3.org/2000/svg" xmlns:xlink="http://www.w3.org/1999/xlink" width="500" zoomAndPan="magnify" viewBox="0 0 375 374.999991" height="500" preserveAspectRatio="xMidYMid meet" version="1.2"><defs><clipPath id="1a9b3a7cbe"><rect x="0" width="368" y="0" height="213"/></clipPath><clipPath id="bc1e4e4177"><path d="M 348.730469 76.570312 L 367.480469 76.570312 L 367.480469 95.320312 L 348.730469 95.320312 Z M 348.730469 76.570312 "/></clipPath></defs><g id="db5aea297c"><g transform="matrix(1,0,0,1,4,93)"><g clip-path="url(#1a9b3a7cbe)"><g style="fill:#f2133c;fill-opacity:1;"><g transform="translate(0.500004, 89.153206)"><path style="stroke:none" d="M 26.890625 1.265625 C 23.347656 1.265625 20.015625 0.734375 16.890625 -0.328125 C 13.773438 -1.398438 11.007812 -2.832031 8.59375 -4.625 C 6.175781 -6.425781 4.28125 -8.492188 2.90625 -10.828125 C 1.53125 -13.160156 0.84375 -15.59375 0.84375 -18.125 C 0.84375 -19.132812 1.390625 -20.242188 2.484375 -21.453125 C 3.578125 -22.660156 4.992188 -23.851562 6.734375 -25.03125 C 8.484375 -26.21875 10.296875 -27.285156 12.171875 -28.234375 C 14.054688 -29.191406 15.8125 -29.96875 17.4375 -30.5625 C 19.070312 -31.15625 20.34375 -31.421875 21.25 -31.359375 C 22.539062 -31.304688 23.632812 -30.867188 24.53125 -30.046875 C 25.4375 -29.234375 25.773438 -28.015625 25.546875 -26.390625 C 25.265625 -24.203125 25.039062 -21.882812 24.875 -19.4375 C 24.707031 -16.988281 24.875 -14.695312 25.375 -12.5625 C 25.882812 -10.425781 26.96875 -8.679688 28.625 -7.328125 C 30.28125 -5.984375 32.738281 -5.3125 36 -5.3125 C 38.195312 -5.3125 40.222656 -5.800781 42.078125 -6.78125 C 43.929688 -7.769531 45.429688 -9.132812 46.578125 -10.875 C 47.734375 -12.613281 48.3125 -14.550781 48.3125 -16.6875 C 48.3125 -19.5625 47.566406 -21.96875 46.078125 -23.90625 C 44.585938 -25.84375 42.644531 -27.457031 40.25 -28.75 C 37.863281 -30.039062 35.265625 -31.109375 32.453125 -31.953125 C 28.296875 -33.242188 24.347656 -34.601562 20.609375 -36.03125 C 16.867188 -37.46875 13.566406 -39.195312 10.703125 -41.21875 C 7.835938 -43.25 5.578125 -45.765625 3.921875 -48.765625 C 2.265625 -51.773438 1.4375 -55.503906 1.4375 -59.953125 C 1.4375 -63.492188 2.125 -66.804688 3.5 -69.890625 C 4.875 -72.984375 6.753906 -75.707031 9.140625 -78.0625 C 11.535156 -80.425781 14.304688 -82.269531 17.453125 -83.59375 C 20.597656 -84.914062 23.941406 -85.578125 27.484375 -85.578125 C 29.679688 -85.578125 31.773438 -85.296875 33.765625 -84.734375 C 35.765625 -84.171875 37.800781 -83.609375 39.875 -83.046875 C 41.957031 -82.484375 44.289062 -82.203125 46.875 -82.203125 C 48.84375 -82.203125 50.398438 -82.484375 51.546875 -83.046875 C 52.703125 -83.609375 53.6875 -84.171875 54.5 -84.734375 C 55.320312 -85.296875 56.15625 -85.578125 57 -85.578125 C 58.007812 -85.578125 58.640625 -85.015625 58.890625 -83.890625 C 59.140625 -82.765625 59.097656 -81.316406 58.765625 -79.546875 C 58.429688 -77.773438 57.851562 -75.890625 57.03125 -73.890625 C 56.21875 -71.898438 55.191406 -70.019531 53.953125 -68.25 C 52.722656 -66.476562 51.347656 -65.03125 49.828125 -63.90625 C 48.304688 -62.78125 46.675781 -62.21875 44.9375 -62.21875 C 41.84375 -62.21875 38.988281 -62.722656 36.375 -63.734375 C 33.757812 -64.753906 31.242188 -65.9375 28.828125 -67.28125 C 26.410156 -68.632812 23.953125 -69.816406 21.453125 -70.828125 C 18.953125 -71.835938 16.296875 -72.34375 13.484375 -72.34375 C 11.910156 -72.34375 10.578125 -71.765625 9.484375 -70.609375 C 8.390625 -69.460938 7.84375 -68.070312 7.84375 -66.4375 C 7.84375 -64.1875 8.726562 -62.34375 10.5 -60.90625 C 12.269531 -59.476562 14.570312 -58.34375 17.40625 -57.5 C 20.25 -56.65625 23.34375 -56.007812 26.6875 -55.5625 C 30.03125 -55.113281 33.300781 -54.75 36.5 -54.46875 C 41.226562 -54.019531 45.375 -52.738281 48.9375 -50.625 C 52.507812 -48.519531 55.289062 -45.765625 57.28125 -42.359375 C 59.28125 -38.960938 60.28125 -35.101562 60.28125 -30.78125 C 60.28125 -27.007812 59.632812 -23.238281 58.34375 -19.46875 C 57.050781 -15.707031 55.066406 -12.265625 52.390625 -9.140625 C 49.722656 -6.023438 46.28125 -3.507812 42.0625 -1.59375 C 37.851562 0.3125 32.796875 1.265625 26.890625 1.265625 Z M 26.890625 1.265625 "/></g></g><g style="fill:#f2133c;fill-opacity:1;"><g transform="translate(61.201624, 89.153206)"><path style="stroke:none" d="M 0.84375 0 C 1.96875 -1.125 2.738281 -2.457031 3.15625 -4 C 3.582031 -5.550781 3.796875 -7.535156 3.796875 -9.953125 L 3.796875 -74.359375 C 3.796875 -76.773438 3.582031 -78.753906 3.15625 -80.296875 C 2.738281 -81.847656 1.96875 -83.1875 0.84375 -84.3125 L 29.09375 -84.3125 C 27.96875 -83.1875 27.191406 -81.847656 26.765625 -80.296875 C 26.347656 -78.753906 26.140625 -76.773438 26.140625 -74.359375 L 26.140625 -9.953125 C 26.140625 -7.535156 26.347656 -5.550781 26.765625 -4 C 27.191406 -2.457031 27.96875 -1.125 29.09375 0 Z M 0.84375 0 "/></g></g><g style="fill:#f2133c;fill-opacity:1;"><g transform="translate(89.444666, 89.153206)"><path style="stroke:none" d="M 3.796875 -74.359375 C 3.796875 -76.773438 3.582031 -78.753906 3.15625 -80.296875 C 2.738281 -81.847656 1.96875 -83.1875 0.84375 -84.3125 L 27.65625 -84.3125 C 29.675781 -84.3125 31.289062 -83.675781 32.5 -82.40625 C 33.707031 -81.144531 34.789062 -79.164062 35.75 -76.46875 C 36.707031 -73.769531 37.789062 -70.253906 39 -65.921875 C 40.207031 -61.597656 41.820312 -56.398438 43.84375 -50.328125 C 45.863281 -56.398438 47.476562 -61.597656 48.6875 -65.921875 C 49.894531 -70.253906 50.976562 -73.769531 51.9375 -76.46875 C 52.894531 -79.164062 53.976562 -81.144531 55.1875 -82.40625 C 56.394531 -83.675781 58.007812 -84.3125 60.03125 -84.3125 L 86.671875 -84.3125 C 85.546875 -83.1875 84.769531 -81.847656 84.34375 -80.296875 C 83.925781 -78.753906 83.71875 -76.773438 83.71875 -74.359375 L 83.71875 -9.953125 C 83.71875 -7.535156 83.925781 -5.550781 84.34375 -4 C 84.769531 -2.457031 85.546875 -1.125 86.671875 0 L 58.421875 0 C 59.546875 -1.125 60.316406 -2.457031 60.734375 -4 C 61.160156 -5.550781 61.375 -7.535156 61.375 -9.953125 L 61.375 -59.015625 C 61.375 -60.304688 61.300781 -61.671875 61.15625 -63.109375 C 61.019531 -64.546875 60.738281 -65.753906 60.3125 -66.734375 C 59.894531 -67.710938 59.210938 -68.203125 58.265625 -68.203125 C 57.472656 -68.203125 56.597656 -67.273438 55.640625 -65.421875 C 54.691406 -63.566406 53.695312 -61.09375 52.65625 -58 C 51.613281 -54.914062 50.570312 -51.472656 49.53125 -47.671875 C 48.488281 -43.878906 47.492188 -40.046875 46.546875 -36.171875 C 45.703125 -32.628906 44.898438 -29.210938 44.140625 -25.921875 C 43.378906 -22.640625 42.644531 -19.675781 41.9375 -17.03125 C 41.238281 -14.382812 40.523438 -12.300781 39.796875 -10.78125 C 39.066406 -9.269531 38.28125 -8.515625 37.4375 -8.515625 C 36.707031 -8.515625 35.878906 -9.34375 34.953125 -11 C 34.023438 -12.65625 33.066406 -14.847656 32.078125 -17.578125 C 31.097656 -20.304688 30.070312 -23.3125 29 -26.59375 C 27.9375 -29.882812 26.867188 -33.160156 25.796875 -36.421875 C 25.460938 -37.429688 24.984375 -38.890625 24.359375 -40.796875 C 23.742188 -42.710938 23.03125 -44.863281 22.21875 -47.25 C 21.40625 -49.644531 20.535156 -52.0625 19.609375 -54.5 C 18.679688 -56.945312 17.75 -59.210938 16.8125 -61.296875 C 15.882812 -63.378906 14.984375 -65.050781 14.109375 -66.3125 C 13.242188 -67.570312 12.472656 -68.203125 11.796875 -68.203125 C 10.898438 -68.203125 10.226562 -67.710938 9.78125 -66.734375 C 9.332031 -65.753906 9.035156 -64.546875 8.890625 -63.109375 C 8.753906 -61.671875 8.6875 -60.304688 8.6875 -59.015625 C 8.6875 -53.617188 9.332031 -48.753906 10.625 -44.421875 C 11.914062 -40.097656 13.515625 -36.179688 15.421875 -32.671875 C 17.335938 -29.160156 19.234375 -25.957031 21.109375 -23.0625 C 22.992188 -20.164062 24.582031 -17.4375 25.875 -14.875 C 27.175781 -12.320312 27.828125 -9.835938 27.828125 -7.421875 C 27.828125 -4.835938 26.882812 -2.953125 25 -1.765625 C 23.113281 -0.585938 20.9375 0 18.46875 0 L 0.84375 0 C 1.96875 -1.125 2.738281 -2.457031 3.15625 -4 C 3.582031 -5.550781 3.796875 -7.535156 3.796875 -9.953125 Z M 3.796875 -74.359375 "/></g></g><g style="fill:#f2133c;fill-opacity:1;"><g transform="translate(175.270076, 89.153206)"><path style="stroke:none" d="M 0.84375 -84.3125 L 34.828125 -84.3125 C 41.679688 -84.3125 47.171875 -83.226562 51.296875 -81.0625 C 55.429688 -78.90625 58.441406 -75.984375 60.328125 -72.296875 C 62.210938 -68.617188 63.15625 -64.503906 63.15625 -59.953125 C 63.15625 -56.691406 62.644531 -53.429688 61.625 -50.171875 C 60.613281 -46.910156 59.039062 -43.941406 56.90625 -41.265625 C 54.769531 -38.597656 51.988281 -36.445312 48.5625 -34.8125 C 45.132812 -33.1875 40.972656 -32.375 36.078125 -32.375 C 32.367188 -32.375 29.09375 -32.863281 26.25 -33.84375 C 23.414062 -34.832031 20.972656 -35.972656 18.921875 -37.265625 C 16.867188 -38.554688 15.140625 -39.691406 13.734375 -40.671875 C 12.335938 -41.660156 11.21875 -42.15625 10.375 -42.15625 C 9.082031 -42.15625 8.4375 -41.453125 8.4375 -40.046875 C 8.4375 -38.242188 8.96875 -36.582031 10.03125 -35.0625 C 11.101562 -33.550781 12.492188 -32.09375 14.203125 -30.6875 C 15.921875 -29.28125 17.734375 -27.832031 19.640625 -26.34375 C 21.554688 -24.851562 23.367188 -23.25 25.078125 -21.53125 C 26.796875 -19.820312 28.1875 -17.898438 29.25 -15.765625 C 30.320312 -13.628906 30.859375 -11.210938 30.859375 -8.515625 C 30.859375 -7.390625 30.644531 -6.164062 30.21875 -4.84375 C 29.800781 -3.519531 29.15625 -2.378906 28.28125 -1.421875 C 27.414062 -0.472656 26.28125 0 24.875 0 L 0.84375 0 C 1.96875 -1.125 2.738281 -2.457031 3.15625 -4 C 3.582031 -5.550781 3.796875 -7.535156 3.796875 -9.953125 L 3.796875 -74.359375 C 3.796875 -76.773438 3.582031 -78.753906 3.15625 -80.296875 C 2.738281 -81.847656 1.96875 -83.1875 0.84375 -84.3125 Z M 29.9375 -66.6875 C 27.800781 -66.6875 25.46875 -66.601562 22.9375 -66.4375 C 20.40625 -66.269531 18.015625 -65.914062 15.765625 -65.375 C 13.515625 -64.84375 11.671875 -64.015625 10.234375 -62.890625 C 8.804688 -61.765625 8.09375 -60.25 8.09375 -58.34375 C 8.09375 -56.4375 8.847656 -54.929688 10.359375 -53.828125 C 11.878906 -52.734375 13.890625 -51.90625 16.390625 -51.34375 C 18.898438 -50.78125 21.628906 -50.414062 24.578125 -50.25 C 27.523438 -50.082031 30.460938 -50 33.390625 -50 C 36.304688 -50 39.253906 -50.082031 42.234375 -50.25 C 45.210938 -50.414062 47.953125 -50.78125 50.453125 -51.34375 C 52.960938 -51.90625 54.972656 -52.734375 56.484375 -53.828125 C 58.003906 -54.929688 58.765625 -56.4375 58.765625 -58.34375 C 58.765625 -59.863281 58.144531 -61.128906 56.90625 -62.140625 C 55.675781 -63.148438 54.035156 -63.960938 51.984375 -64.578125 C 49.929688 -65.203125 47.640625 -65.65625 45.109375 -65.9375 C 42.578125 -66.21875 39.988281 -66.410156 37.34375 -66.515625 C 34.707031 -66.628906 32.238281 -66.6875 29.9375 -66.6875 Z M 29.9375 -66.6875 "/></g></g><g style="fill:#f2133c;fill-opacity:1;"><g transform="translate(238.41662, 89.153206)"><path style="stroke:none" d="M 45.78125 0 L 0.84375 0 C 1.96875 -1.125 2.738281 -2.457031 3.15625 -4 C 3.582031 -5.550781 3.796875 -7.535156 3.796875 -9.953125 L 3.796875 -74.359375 C 3.796875 -76.773438 3.582031 -78.753906 3.15625 -80.296875 C 2.738281 -81.847656 1.96875 -83.1875 0.84375 -84.3125 L 26.734375 -84.3125 C 29.035156 -84.3125 30.816406 -83.914062 32.078125 -83.125 C 33.347656 -82.34375 34.234375 -81.375 34.734375 -80.21875 C 35.242188 -79.070312 35.5 -77.9375 35.5 -76.8125 C 35.5 -74.726562 34.90625 -72.601562 33.71875 -70.4375 C 32.539062 -68.28125 31.023438 -66.0625 29.171875 -63.78125 C 27.316406 -61.507812 25.347656 -59.132812 23.265625 -56.65625 C 21.191406 -54.1875 19.226562 -51.601562 17.375 -48.90625 C 15.519531 -46.207031 14 -43.378906 12.8125 -40.421875 C 11.632812 -37.472656 11.046875 -34.367188 11.046875 -31.109375 C 11.046875 -29.253906 11.335938 -27.160156 11.921875 -24.828125 C 12.515625 -22.492188 13.382812 -20.117188 14.53125 -17.703125 C 15.6875 -15.285156 17.132812 -13.050781 18.875 -11 C 20.625 -8.945312 22.664062 -7.300781 25 -6.0625 C 27.332031 -4.832031 29.929688 -4.21875 32.796875 -4.21875 C 34.597656 -4.21875 36.335938 -4.507812 38.015625 -5.09375 C 39.703125 -5.6875 41.09375 -6.570312 42.1875 -7.75 C 43.289062 -8.9375 43.84375 -10.398438 43.84375 -12.140625 C 43.84375 -14.390625 43.363281 -16.3125 42.40625 -17.90625 C 41.445312 -19.507812 40.265625 -20.984375 38.859375 -22.328125 C 37.460938 -23.679688 36.046875 -25.101562 34.609375 -26.59375 C 33.171875 -28.082031 31.972656 -29.828125 31.015625 -31.828125 C 30.066406 -33.828125 29.59375 -36.285156 29.59375 -39.203125 C 29.59375 -41.335938 30.113281 -43.332031 31.15625 -45.1875 C 32.195312 -47.039062 33.585938 -48.546875 35.328125 -49.703125 C 37.066406 -50.859375 39.003906 -51.4375 41.140625 -51.4375 C 42.492188 -51.4375 44.238281 -51.179688 46.375 -50.671875 C 48.507812 -50.160156 50.644531 -49.484375 52.78125 -48.640625 C 54.914062 -47.804688 56.710938 -46.828125 58.171875 -45.703125 C 59.640625 -44.578125 60.375 -43.394531 60.375 -42.15625 C 60.375 -40.53125 59.921875 -39.238281 59.015625 -38.28125 C 58.117188 -37.320312 56.96875 -36.546875 55.5625 -35.953125 C 54.15625 -35.367188 52.675781 -34.835938 51.125 -34.359375 C 49.582031 -33.878906 48.109375 -33.367188 46.703125 -32.828125 C 45.296875 -32.296875 44.144531 -31.582031 43.25 -30.6875 C 42.351562 -29.789062 41.90625 -28.582031 41.90625 -27.0625 C 41.90625 -25.820312 42.367188 -24.753906 43.296875 -23.859375 C 44.222656 -22.960938 45.398438 -22.132812 46.828125 -21.375 C 48.265625 -20.613281 49.796875 -19.828125 51.421875 -19.015625 C 53.054688 -18.203125 54.585938 -17.257812 56.015625 -16.1875 C 57.453125 -15.125 58.632812 -13.847656 59.5625 -12.359375 C 60.488281 -10.867188 60.953125 -9.050781 60.953125 -6.90625 C 60.953125 -5 60.488281 -3.550781 59.5625 -2.5625 C 58.632812 -1.582031 57.410156 -0.921875 55.890625 -0.578125 C 54.378906 -0.242188 52.738281 -0.0625 50.96875 -0.03125 C 49.195312 -0.0078125 47.46875 0 45.78125 0 Z M 45.78125 0 "/></g></g><g style="fill:#f2133c;fill-opacity:1;"><g transform="translate(298.5281, 89.153206)"><path style="stroke:none" d="M 0 -84.3125 L 22.6875 -84.3125 C 25.382812 -84.3125 27.53125 -83.566406 29.125 -82.078125 C 30.726562 -80.585938 31.878906 -78.734375 32.578125 -76.515625 C 33.285156 -74.296875 33.640625 -72.0625 33.640625 -69.8125 C 33.640625 -67.113281 33.242188 -64.707031 32.453125 -62.59375 C 31.671875 -60.488281 30.757812 -58.492188 29.71875 -56.609375 C 28.675781 -54.734375 27.757812 -52.753906 26.96875 -50.671875 C 26.1875 -48.585938 25.796875 -46.195312 25.796875 -43.5 C 25.796875 -41.425781 26.640625 -39.488281 28.328125 -37.6875 C 30.015625 -35.882812 32.597656 -35.015625 36.078125 -35.078125 C 38.835938 -35.078125 41.0625 -35.539062 42.75 -36.46875 C 44.4375 -37.394531 45.726562 -38.5625 46.625 -39.96875 C 47.519531 -41.375 48.125 -42.847656 48.4375 -44.390625 C 48.75 -45.929688 48.90625 -47.378906 48.90625 -48.734375 C 48.90625 -50.921875 48.484375 -53.125 47.640625 -55.34375 C 46.796875 -57.570312 45.753906 -59.78125 44.515625 -61.96875 C 43.273438 -64.164062 42.035156 -66.300781 40.796875 -68.375 C 39.566406 -70.457031 38.53125 -72.4375 37.6875 -74.3125 C 36.84375 -76.195312 36.421875 -77.925781 36.421875 -79.5 C 36.421875 -80.800781 36.867188 -81.925781 37.765625 -82.875 C 38.671875 -83.832031 39.796875 -84.3125 41.140625 -84.3125 L 60.796875 -84.3125 C 62.648438 -84.3125 64.050781 -83.632812 65 -82.28125 C 65.957031 -80.9375 66.601562 -79.304688 66.9375 -77.390625 C 67.28125 -75.484375 67.453125 -73.660156 67.453125 -71.921875 C 67.453125 -67.703125 66.832031 -63.789062 65.59375 -60.1875 C 64.351562 -56.59375 62.75 -53.265625 60.78125 -50.203125 C 58.820312 -47.140625 56.742188 -44.285156 54.546875 -41.640625 C 52.359375 -39.003906 50.28125 -36.535156 48.3125 -34.234375 C 46.34375 -31.929688 44.738281 -29.765625 43.5 -27.734375 C 42.269531 -25.710938 41.65625 -23.773438 41.65625 -21.921875 C 41.65625 -18.773438 42.078125 -16.175781 42.921875 -14.125 C 43.765625 -12.070312 44.71875 -10.351562 45.78125 -8.96875 C 46.851562 -7.59375 47.804688 -6.398438 48.640625 -5.390625 C 49.484375 -4.378906 49.90625 -3.367188 49.90625 -2.359375 C 49.90625 -1.679688 49.582031 -1.117188 48.9375 -0.671875 C 48.289062 -0.222656 47.15625 0 45.53125 0 L 25.046875 0 C 23.859375 0 22.867188 -0.421875 22.078125 -1.265625 C 21.296875 -2.109375 20.722656 -3.160156 20.359375 -4.421875 C 19.992188 -5.691406 19.8125 -6.914062 19.8125 -8.09375 C 19.8125 -10.28125 20.457031 -12.257812 21.75 -14.03125 C 23.039062 -15.800781 24.640625 -17.414062 26.546875 -18.875 C 28.460938 -20.34375 30.375 -21.691406 32.28125 -22.921875 C 34.195312 -24.160156 35.800781 -25.3125 37.09375 -26.375 C 38.382812 -27.445312 39.03125 -28.492188 39.03125 -29.515625 C 39.03125 -30.359375 38.664062 -30.78125 37.9375 -30.78125 C 37.207031 -30.78125 36.503906 -30.609375 35.828125 -30.265625 C 35.160156 -29.929688 34.265625 -29.582031 33.140625 -29.21875 C 32.015625 -28.851562 30.4375 -28.671875 28.40625 -28.671875 C 25.207031 -28.671875 22.582031 -29.226562 20.53125 -30.34375 C 18.476562 -31.46875 16.847656 -32.972656 15.640625 -34.859375 C 14.429688 -36.742188 13.53125 -38.820312 12.9375 -41.09375 C 12.351562 -43.375 11.945312 -45.640625 11.71875 -47.890625 C 11.4375 -50.703125 11.113281 -53.804688 10.75 -57.203125 C 10.382812 -60.609375 9.820312 -64.023438 9.0625 -67.453125 C 8.300781 -70.878906 7.203125 -74.066406 5.765625 -77.015625 C 4.335938 -79.972656 2.414062 -82.40625 0 -84.3125 Z M 0 -84.3125 "/></g></g><g style="fill:#f2133c;fill-opacity:1;"><g transform="translate(0.500004, 185.799201)"><path style="stroke:none" d="M 3.796875 -74.359375 C 3.796875 -76.773438 3.582031 -78.753906 3.15625 -80.296875 C 2.738281 -81.847656 1.96875 -83.1875 0.84375 -84.3125 L 37.09375 -84.3125 C 42.550781 -84.3125 47.035156 -83.3125 50.546875 -81.3125 C 54.054688 -79.320312 56.664062 -76.738281 58.375 -73.5625 C 60.09375 -70.382812 60.953125 -67 60.953125 -63.40625 C 60.953125 -61.039062 60.457031 -58.609375 59.46875 -56.109375 C 58.488281 -53.609375 57.015625 -51.300781 55.046875 -49.1875 C 53.085938 -47.082031 50.644531 -45.382812 47.71875 -44.09375 C 44.800781 -42.800781 41.398438 -42.15625 37.515625 -42.15625 C 34.421875 -42.15625 31.398438 -42.460938 28.453125 -43.078125 C 25.503906 -43.703125 22.820312 -44.304688 20.40625 -44.890625 C 17.988281 -45.484375 15.992188 -45.78125 14.421875 -45.78125 C 13.859375 -45.78125 13.394531 -45.664062 13.03125 -45.4375 C 12.664062 -45.21875 12.484375 -44.882812 12.484375 -44.4375 C 12.484375 -43.59375 13.3125 -42.875 14.96875 -42.28125 C 16.625 -41.6875 18.742188 -41.207031 21.328125 -40.84375 C 23.910156 -40.476562 26.59375 -40.171875 29.375 -39.921875 C 32.164062 -39.671875 34.679688 -39.429688 36.921875 -39.203125 C 45.523438 -38.359375 51.820312 -36.125 55.8125 -32.5 C 59.800781 -28.875 61.796875 -24.164062 61.796875 -18.375 C 61.796875 -15.0625 60.882812 -12.015625 59.0625 -9.234375 C 57.238281 -6.453125 54.78125 -4.21875 51.6875 -2.53125 C 48.59375 -0.84375 45.109375 0 41.234375 0 L 0.84375 0 C 1.96875 -1.125 2.738281 -2.457031 3.15625 -4 C 3.582031 -5.550781 3.796875 -7.535156 3.796875 -9.953125 Z M 30.9375 -67.453125 C 28.070312 -67.453125 25.273438 -67.15625 22.546875 -66.5625 C 19.828125 -65.96875 17.398438 -65.125 15.265625 -64.03125 C 13.128906 -62.9375 11.425781 -61.671875 10.15625 -60.234375 C 8.894531 -58.804688 8.265625 -57.25 8.265625 -55.5625 C 8.265625 -53.644531 9.132812 -52.164062 10.875 -51.125 C 12.613281 -50.09375 14.640625 -49.578125 16.953125 -49.578125 C 21.785156 -49.578125 25.898438 -50.191406 29.296875 -51.421875 C 32.703125 -52.660156 35.300781 -54.179688 37.09375 -55.984375 C 38.894531 -57.785156 39.796875 -59.523438 39.796875 -61.203125 C 39.796875 -62.890625 39.035156 -64.351562 37.515625 -65.59375 C 36.003906 -66.832031 33.8125 -67.453125 30.9375 -67.453125 Z M 9.359375 -39.203125 C 8.960938 -39.203125 8.691406 -39.101562 8.546875 -38.90625 C 8.410156 -38.707031 8.34375 -38.5 8.34375 -38.28125 C 8.34375 -37.769531 8.679688 -37.035156 9.359375 -36.078125 C 10.035156 -35.128906 10.847656 -34.117188 11.796875 -33.046875 C 12.753906 -31.984375 13.597656 -31 14.328125 -30.09375 C 15.898438 -28.300781 17.65625 -26.347656 19.59375 -24.234375 C 21.539062 -22.128906 23.707031 -20.332031 26.09375 -18.84375 C 28.476562 -17.351562 31.019531 -16.609375 33.71875 -16.609375 C 35.40625 -16.609375 36.738281 -16.929688 37.71875 -17.578125 C 38.707031 -18.222656 39.410156 -19.007812 39.828125 -19.9375 C 40.253906 -20.863281 40.46875 -21.75 40.46875 -22.59375 C 40.46875 -24.675781 39.257812 -26.785156 36.84375 -28.921875 C 34.425781 -31.054688 30.097656 -33.078125 23.859375 -34.984375 C 19.359375 -36.390625 16.082031 -37.441406 14.03125 -38.140625 C 11.976562 -38.847656 10.421875 -39.203125 9.359375 -39.203125 Z M 9.359375 -39.203125 "/></g></g><g style="fill:#f2133c;fill-opacity:1;"><g transform="translate(62.297627, 185.799201)"><path style="stroke:none" d="M 45.78125 0 L 0.84375 0 C 1.96875 -1.125 2.738281 -2.457031 3.15625 -4 C 3.582031 -5.550781 3.796875 -7.535156 3.796875 -9.953125 L 3.796875 -74.359375 C 3.796875 -76.773438 3.582031 -78.753906 3.15625 -80.296875 C 2.738281 -81.847656 1.96875 -83.1875 0.84375 -84.3125 L 26.734375 -84.3125 C 29.035156 -84.3125 30.816406 -83.914062 32.078125 -83.125 C 33.347656 -82.34375 34.234375 -81.375 34.734375 -80.21875 C 35.242188 -79.070312 35.5 -77.9375 35.5 -76.8125 C 35.5 -74.726562 34.90625 -72.601562 33.71875 -70.4375 C 32.539062 -68.28125 31.023438 -66.0625 29.171875 -63.78125 C 27.316406 -61.507812 25.347656 -59.132812 23.265625 -56.65625 C 21.191406 -54.1875 19.226562 -51.601562 17.375 -48.90625 C 15.519531 -46.207031 14 -43.378906 12.8125 -40.421875 C 11.632812 -37.472656 11.046875 -34.367188 11.046875 -31.109375 C 11.046875 -29.253906 11.335938 -27.160156 11.921875 -24.828125 C 12.515625 -22.492188 13.382812 -20.117188 14.53125 -17.703125 C 15.6875 -15.285156 17.132812 -13.050781 18.875 -11 C 20.625 -8.945312 22.664062 -7.300781 25 -6.0625 C 27.332031 -4.832031 29.929688 -4.21875 32.796875 -4.21875 C 34.597656 -4.21875 36.335938 -4.507812 38.015625 -5.09375 C 39.703125 -5.6875 41.09375 -6.570312 42.1875 -7.75 C 43.289062 -8.9375 43.84375 -10.398438 43.84375 -12.140625 C 43.84375 -14.390625 43.363281 -16.3125 42.40625 -17.90625 C 41.445312 -19.507812 40.265625 -20.984375 38.859375 -22.328125 C 37.460938 -23.679688 36.046875 -25.101562 34.609375 -26.59375 C 33.171875 -28.082031 31.972656 -29.828125 31.015625 -31.828125 C 30.066406 -33.828125 29.59375 -36.285156 29.59375 -39.203125 C 29.59375 -41.335938 30.113281 -43.332031 31.15625 -45.1875 C 32.195312 -47.039062 33.585938 -48.546875 35.328125 -49.703125 C 37.066406 -50.859375 39.003906 -51.4375 41.140625 -51.4375 C 42.492188 -51.4375 44.238281 -51.179688 46.375 -50.671875 C 48.507812 -50.160156 50.644531 -49.484375 52.78125 -48.640625 C 54.914062 -47.804688 56.710938 -46.828125 58.171875 -45.703125 C 59.640625 -44.578125 60.375 -43.394531 60.375 -42.15625 C 60.375 -40.53125 59.921875 -39.238281 59.015625 -38.28125 C 58.117188 -37.320312 56.96875 -36.546875 55.5625 -35.953125 C 54.15625 -35.367188 52.675781 -34.835938 51.125 -34.359375 C 49.582031 -33.878906 48.109375 -33.367188 46.703125 -32.828125 C 45.296875 -32.296875 44.144531 -31.582031 43.25 -30.6875 C 42.351562 -29.789062 41.90625 -28.582031 41.90625 -27.0625 C 41.90625 -25.820312 42.367188 -24.753906 43.296875 -23.859375 C 44.222656 -22.960938 45.398438 -22.132812 46.828125 -21.375 C 48.265625 -20.613281 49.796875 -19.828125 51.421875 -19.015625 C 53.054688 -18.203125 54.585938 -17.257812 56.015625 -16.1875 C 57.453125 -15.125 58.632812 -13.847656 59.5625 -12.359375 C 60.488281 -10.867188 60.953125 -9.050781 60.953125 -6.90625 C 60.953125 -5 60.488281 -3.550781 59.5625 -2.5625 C 58.632812 -1.582031 57.410156 -0.921875 55.890625 -0.578125 C 54.378906 -0.242188 52.738281 -0.0625 50.96875 -0.03125 C 49.195312 -0.0078125 47.46875 0 45.78125 0 Z M 45.78125 0 "/></g></g><g style="fill:#f2133c;fill-opacity:1;"><g transform="translate(122.409091, 185.799201)"><path style="stroke:none" d="M 2.109375 -42.15625 C 2.109375 -48.675781 2.894531 -54.59375 4.46875 -59.90625 C 6.039062 -65.21875 8.285156 -69.796875 11.203125 -73.640625 C 14.128906 -77.492188 17.628906 -80.445312 21.703125 -82.5 C 25.785156 -84.550781 30.328125 -85.578125 35.328125 -85.578125 C 40.273438 -85.578125 44.785156 -84.550781 48.859375 -82.5 C 52.929688 -80.445312 56.425781 -77.492188 59.34375 -73.640625 C 62.269531 -69.796875 64.519531 -65.21875 66.09375 -59.90625 C 67.675781 -54.59375 68.46875 -48.675781 68.46875 -42.15625 C 68.46875 -35.632812 67.675781 -29.71875 66.09375 -24.40625 C 64.519531 -19.09375 62.269531 -14.507812 59.34375 -10.65625 C 56.425781 -6.8125 52.929688 -3.863281 48.859375 -1.8125 C 44.785156 0.238281 40.273438 1.265625 35.328125 1.265625 C 30.328125 1.265625 25.785156 0.238281 21.703125 -1.8125 C 17.628906 -3.863281 14.128906 -6.8125 11.203125 -10.65625 C 8.285156 -14.507812 6.039062 -19.09375 4.46875 -24.40625 C 2.894531 -29.71875 2.109375 -35.632812 2.109375 -42.15625 Z M 28.5 -79.84375 C 26.53125 -79.84375 24.984375 -78.785156 23.859375 -76.671875 C 22.734375 -74.566406 21.972656 -71.71875 21.578125 -68.125 C 21.191406 -64.53125 21.125 -60.5 21.375 -56.03125 C 21.625 -51.5625 22.140625 -46.9375 22.921875 -42.15625 C 23.710938 -37.375 24.710938 -32.75 25.921875 -28.28125 C 27.128906 -23.8125 28.503906 -19.78125 30.046875 -16.1875 C 31.597656 -12.59375 33.257812 -9.738281 35.03125 -7.625 C 36.800781 -5.519531 38.613281 -4.46875 40.46875 -4.46875 C 42.832031 -4.46875 44.71875 -5.519531 46.125 -7.625 C 47.53125 -9.738281 48.507812 -12.59375 49.0625 -16.1875 C 49.625 -19.78125 49.820312 -23.8125 49.65625 -28.28125 C 49.488281 -32.75 49.007812 -37.375 48.21875 -42.15625 C 47.4375 -46.9375 46.382812 -51.5625 45.0625 -56.03125 C 43.738281 -60.5 42.21875 -64.53125 40.5 -68.125 C 38.789062 -71.71875 36.925781 -74.566406 34.90625 -76.671875 C 32.882812 -78.785156 30.75 -79.84375 28.5 -79.84375 Z M 28.5 -79.84375 "/></g></g><g style="fill:#f2133c;fill-opacity:1;"><g transform="translate(191.288584, 185.799201)"><path style="stroke:none" d="M 2.109375 -42.15625 C 2.109375 -48.675781 2.894531 -54.59375 4.46875 -59.90625 C 6.039062 -65.21875 8.285156 -69.796875 11.203125 -73.640625 C 14.128906 -77.492188 17.628906 -80.445312 21.703125 -82.5 C 25.785156 -84.550781 30.328125 -85.578125 35.328125 -85.578125 C 40.273438 -85.578125 44.785156 -84.550781 48.859375 -82.5 C 52.929688 -80.445312 56.425781 -77.492188 59.34375 -73.640625 C 62.269531 -69.796875 64.519531 -65.21875 66.09375 -59.90625 C 67.675781 -54.59375 68.46875 -48.675781 68.46875 -42.15625 C 68.46875 -35.632812 67.675781 -29.71875 66.09375 -24.40625 C 64.519531 -19.09375 62.269531 -14.507812 59.34375 -10.65625 C 56.425781 -6.8125 52.929688 -3.863281 48.859375 -1.8125 C 44.785156 0.238281 40.273438 1.265625 35.328125 1.265625 C 30.328125 1.265625 25.785156 0.238281 21.703125 -1.8125 C 17.628906 -3.863281 14.128906 -6.8125 11.203125 -10.65625 C 8.285156 -14.507812 6.039062 -19.09375 4.46875 -24.40625 C 2.894531 -29.71875 2.109375 -35.632812 2.109375 -42.15625 Z M 28.5 -79.84375 C 26.53125 -79.84375 24.984375 -78.785156 23.859375 -76.671875 C 22.734375 -74.566406 21.972656 -71.71875 21.578125 -68.125 C 21.191406 -64.53125 21.125 -60.5 21.375 -56.03125 C 21.625 -51.5625 22.140625 -46.9375 22.921875 -42.15625 C 23.710938 -37.375 24.710938 -32.75 25.921875 -28.28125 C 27.128906 -23.8125 28.503906 -19.78125 30.046875 -16.1875 C 31.597656 -12.59375 33.257812 -9.738281 35.03125 -7.625 C 36.800781 -5.519531 38.613281 -4.46875 40.46875 -4.46875 C 42.832031 -4.46875 44.71875 -5.519531 46.125 -7.625 C 47.53125 -9.738281 48.507812 -12.59375 49.0625 -16.1875 C 49.625 -19.78125 49.820312 -23.8125 49.65625 -28.28125 C 49.488281 -32.75 49.007812 -37.375 48.21875 -42.15625 C 47.4375 -46.9375 46.382812 -51.5625 45.0625 -56.03125 C 43.738281 -60.5 42.21875 -64.53125 40.5 -68.125 C 38.789062 -71.71875 36.925781 -74.566406 34.90625 -76.671875 C 32.882812 -78.785156 30.75 -79.84375 28.5 -79.84375 Z M 28.5 -79.84375 "/></g></g><g style="fill:#f2133c;fill-opacity:1;"><g transform="translate(260.168084, 185.799201)"><path style="stroke:none" d="M 3.796875 -74.359375 C 3.796875 -76.773438 3.582031 -78.753906 3.15625 -80.296875 C 2.738281 -81.847656 1.96875 -83.1875 0.84375 -84.3125 L 27.65625 -84.3125 C 29.675781 -84.3125 31.289062 -83.675781 32.5 -82.40625 C 33.707031 -81.144531 34.789062 -79.164062 35.75 -76.46875 C 36.707031 -73.769531 37.789062 -70.253906 39 -65.921875 C 40.207031 -61.597656 41.820312 -56.398438 43.84375 -50.328125 C 45.863281 -56.398438 47.476562 -61.597656 48.6875 -65.921875 C 49.894531 -70.253906 50.976562 -73.769531 51.9375 -76.46875 C 52.894531 -79.164062 53.976562 -81.144531 55.1875 -82.40625 C 56.394531 -83.675781 58.007812 -84.3125 60.03125 -84.3125 L 86.671875 -84.3125 C 85.546875 -83.1875 84.769531 -81.847656 84.34375 -80.296875 C 83.925781 -78.753906 83.71875 -76.773438 83.71875 -74.359375 L 83.71875 -9.953125 C 83.71875 -7.535156 83.925781 -5.550781 84.34375 -4 C 84.769531 -2.457031 85.546875 -1.125 86.671875 0 L 58.421875 0 C 59.546875 -1.125 60.316406 -2.457031 60.734375 -4 C 61.160156 -5.550781 61.375 -7.535156 61.375 -9.953125 L 61.375 -59.015625 C 61.375 -60.304688 61.300781 -61.671875 61.15625 -63.109375 C 61.019531 -64.546875 60.738281 -65.753906 60.3125 -66.734375 C 59.894531 -67.710938 59.210938 -68.203125 58.265625 -68.203125 C 57.472656 -68.203125 56.597656 -67.273438 55.640625 -65.421875 C 54.691406 -63.566406 53.695312 -61.09375 52.65625 -58 C 51.613281 -54.914062 50.570312 -51.472656 49.53125 -47.671875 C 48.488281 -43.878906 47.492188 -40.046875 46.546875 -36.171875 C 45.703125 -32.628906 44.898438 -29.210938 44.140625 -25.921875 C 43.378906 -22.640625 42.644531 -19.675781 41.9375 -17.03125 C 41.238281 -14.382812 40.523438 -12.300781 39.796875 -10.78125 C 39.066406 -9.269531 38.28125 -8.515625 37.4375 -8.515625 C 36.707031 -8.515625 35.878906 -9.34375 34.953125 -11 C 34.023438 -12.65625 33.066406 -14.847656 32.078125 -17.578125 C 31.097656 -20.304688 30.070312 -23.3125 29 -26.59375 C 27.9375 -29.882812 26.867188 -33.160156 25.796875 -36.421875 C 25.460938 -37.429688 24.984375 -38.890625 24.359375 -40.796875 C 23.742188 -42.710938 23.03125 -44.863281 22.21875 -47.25 C 21.40625 -49.644531 20.535156 -52.0625 19.609375 -54.5 C 18.679688 -56.945312 17.75 -59.210938 16.8125 -61.296875 C 15.882812 -63.378906 14.984375 -65.050781 14.109375 -66.3125 C 13.242188 -67.570312 12.472656 -68.203125 11.796875 -68.203125 C 10.898438 -68.203125 10.226562 -67.710938 9.78125 -66.734375 C 9.332031 -65.753906 9.035156 -64.546875 8.890625 -63.109375 C 8.753906 -61.671875 8.6875 -60.304688 8.6875 -59.015625 C 8.6875 -53.617188 9.332031 -48.753906 10.625 -44.421875 C 11.914062 -40.097656 13.515625 -36.179688 15.421875 -32.671875 C 17.335938 -29.160156 19.234375 -25.957031 21.109375 -23.0625 C 22.992188 -20.164062 24.582031 -17.4375 25.875 -14.875 C 27.175781 -12.320312 27.828125 -9.835938 27.828125 -7.421875 C 27.828125 -4.835938 26.882812 -2.953125 25 -1.765625 C 23.113281 -0.585938 20.9375 0 18.46875 0 L 0.84375 0 C 1.96875 -1.125 2.738281 -2.457031 3.15625 -4 C 3.582031 -5.550781 3.796875 -7.535156 3.796875 -9.953125 Z M 3.796875 -74.359375 "/></g></g></g></g><path style=" stroke:none;fill-rule:nonzero;fill:#212121;fill-opacity:1;" d="M 356.152344 89.601562 L 356.152344 86.238281 L 357.316406 86.238281 C 357.574219 86.238281 357.761719 86.246094 357.875 86.269531 C 358.03125 86.308594 358.175781 86.382812 358.328125 86.476562 C 358.472656 86.566406 358.648438 86.742188 358.835938 86.980469 C 359.019531 87.21875 359.269531 87.566406 359.554688 88.023438 L 360.558594 89.601562 L 361.804688 89.601562 L 360.496094 87.539062 C 360.238281 87.136719 359.957031 86.804688 359.671875 86.535156 C 359.535156 86.414062 359.328125 86.277344 359.070312 86.15625 C 359.792969 86.050781 360.332031 85.824219 360.679688 85.453125 C 361.019531 85.082031 361.195312 84.636719 361.195312 84.101562 C 361.195312 83.679688 361.09375 83.308594 360.886719 82.957031 C 360.671875 82.617188 360.390625 82.378906 360.042969 82.246094 C 359.691406 82.109375 359.175781 82.039062 358.503906 82.039062 L 355.152344 82.039062 L 355.152344 89.601562 Z M 356.152344 82.875 L 358.546875 82.875 C 359.101562 82.875 359.515625 82.988281 359.773438 83.214844 C 360.03125 83.453125 360.164062 83.742188 360.164062 84.101562 C 360.164062 84.339844 360.101562 84.566406 359.96875 84.773438 C 359.835938 84.980469 359.640625 85.132812 359.382812 85.226562 C 359.125 85.320312 358.761719 85.371094 358.308594 85.371094 L 356.152344 85.371094 L 356.152344 82.875 "/><g clip-rule="nonzero" clip-path="url(#bc1e4e4177)"><path style=" stroke:none;fill-rule:nonzero;fill:#212121;fill-opacity:1;" d="M 366.914062 85.945312 C 366.914062 83.511719 365.929688 81.3125 364.335938 79.71875 C 362.742188 78.125 360.539062 77.136719 358.105469 77.136719 C 355.675781 77.136719 353.472656 78.125 351.878906 79.71875 C 350.285156 81.3125 349.296875 83.511719 349.296875 85.945312 C 349.296875 88.378906 350.285156 90.578125 351.878906 92.171875 C 353.472656 93.765625 355.675781 94.753906 358.105469 94.753906 C 360.539062 94.753906 362.742188 93.765625 364.335938 92.171875 C 365.929688 90.578125 366.914062 88.378906 366.914062 85.945312 Z M 364.734375 79.316406 C 366.433594 81.011719 367.480469 83.355469 367.480469 85.945312 C 367.480469 88.535156 366.433594 90.878906 364.734375 92.574219 C 363.039062 94.273438 360.695312 95.320312 358.105469 95.320312 C 355.515625 95.320312 353.171875 94.273438 351.476562 92.574219 C 349.78125 90.878906 348.730469 88.535156 348.730469 85.945312 C 348.730469 83.355469 349.78125 81.011719 351.476562 79.316406 C 353.171875 77.617188 355.515625 76.570312 358.105469 76.570312 C 360.695312 76.570312 363.039062 77.617188 364.734375 79.316406 "/></g></g></svg>